<?xml version="1.0" encoding="UTF-8" standalone="no"?>
<!-- Created with Inkscape (http://www.inkscape.org/) -->

<svg
   xmlns:dc="http://purl.org/dc/elements/1.1/"
   xmlns:cc="http://creativecommons.org/ns#"
   xmlns:rdf="http://www.w3.org/1999/02/22-rdf-syntax-ns#"
   xmlns:svg="http://www.w3.org/2000/svg"
   xmlns="http://www.w3.org/2000/svg"
   xmlns:xlink="http://www.w3.org/1999/xlink"
   xmlns:sodipodi="http://sodipodi.sourceforge.net/DTD/sodipodi-0.dtd"
   xmlns:inkscape="http://www.inkscape.org/namespaces/inkscape"
   width="2160"
   height="1620"
   id="svg2"
   version="1.1"
   inkscape:version="0.48.2 r9819"
   sodipodi:docname="SensorNodeBox.svg">
  <defs
     id="defs4" />
  <sodipodi:namedview
     id="base"
     pagecolor="#ffffff"
     bordercolor="#666666"
     borderopacity="1.0"
     inkscape:pageopacity="0.0"
     inkscape:pageshadow="2"
     inkscape:zoom="0.99674932"
     inkscape:cx="-54.810109"
     inkscape:cy="1322.9517"
     inkscape:document-units="mm"
     inkscape:current-layer="layer1"
     showgrid="true"
     units="in"
     inkscape:window-width="1680"
     inkscape:window-height="975"
     inkscape:window-x="0"
     inkscape:window-y="24"
     inkscape:window-maximized="1"
     inkscape:snap-object-midpoints="false"
     inkscape:snap-global="true"
     inkscape:snap-bbox="false"
     inkscape:snap-bbox-midpoints="true"
     inkscape:snap-grids="true"
     inkscape:snap-midpoints="false"
     inkscape:object-nodes="true"
     inkscape:bbox-nodes="false"
     inkscape:snap-center="false"
     inkscape:snap-nodes="true"
     inkscape:snap-bbox-edge-midpoints="false">
    <inkscape:grid
       type="xygrid"
       id="grid2985"
       empspacing="10"
       visible="true"
       enabled="true"
       snapvisiblegridlinesonly="true"
       units="mm"
       spacingx="1mm"
       spacingy="1mm"
       color="#000000"
       opacity="0.07843137"
       empcolor="#000000"
       empopacity="0.15686275" />
  </sodipodi:namedview>
  <metadata
     id="metadata7">
    <rdf:RDF>
      <cc:Work
         rdf:about="">
        <dc:format>image/svg+xml</dc:format>
        <dc:type
           rdf:resource="http://purl.org/dc/dcmitype/StillImage" />
        <dc:title />
      </cc:Work>
    </rdf:RDF>
  </metadata>
  <g
     inkscape:label="Layer 1"
     inkscape:groupmode="layer"
     id="layer1"
     transform="translate(0,567.64025)">
    <path
       style="fill:none;stroke:#0000ff;stroke-width:0.00354331;stroke-miterlimit:4;stroke-opacity:1;stroke-dasharray:none"
       d="m 35.433071,-542.12844 198.425199,0 0,14.17323 7.08661,0 0,-14.17323 201.96851,0 0,212.59842 c -67.91339,0 -134.05512,10e-6 -201.96851,10e-6 l 0,-14.17323 -7.08661,0 0,14.17323 -198.425199,-10e-6 z"
       id="rect3784"
       inkscape:connector-curvature="0"
       sodipodi:nodetypes="ccccccccccccc" />
    <g
       id="g3796"
       transform="matrix(0.91343852,0,0,1,-222.19888,-2.4409474e-7)"
       style="stroke-width:0.0037074;stroke-miterlimit:4;stroke-dasharray:none">
      <path
         transform="translate(0,-567.64025)"
         inkscape:connector-curvature="0"
         id="path3786"
         d="m 318.89764,238.11024 0,-56.69292 0,0"
         style="fill:none;stroke:#000000;stroke-width:0.0037074;stroke-linecap:butt;stroke-linejoin:miter;stroke-opacity:1;stroke-miterlimit:4;stroke-dasharray:none" />
      <path
         transform="translate(0,-567.64025)"
         inkscape:connector-curvature="0"
         id="path3788"
         d="m 318.89764,25.511811 0,56.692913"
         style="fill:none;stroke:#000000;stroke-width:0.0037074;stroke-linecap:butt;stroke-linejoin:miter;stroke-opacity:1;stroke-miterlimit:4;stroke-dasharray:none" />
      <path
         transform="translate(0,-567.64025)"
         inkscape:connector-curvature="0"
         id="path3790"
         d="m 318.89764,96.377953 0,70.866137"
         style="fill:none;stroke:#000000;stroke-width:0.0037074;stroke-linecap:butt;stroke-linejoin:miter;stroke-opacity:1;stroke-miterlimit:4;stroke-dasharray:none" />
      <path
         transform="translate(0,-567.64025)"
         inkscape:connector-curvature="0"
         id="path3792"
         d="m 333.07087,223.93701 0,-85.03937"
         style="fill:none;stroke:#000000;stroke-width:0.0037074;stroke-linecap:butt;stroke-linejoin:miter;stroke-opacity:1;stroke-miterlimit:4;stroke-dasharray:none" />
      <path
         sodipodi:nodetypes="cc"
         transform="translate(0,-567.64025)"
         inkscape:connector-curvature="0"
         id="path3794"
         d="m 333.07087,124.72441 0,-85.039371"
         style="fill:none;stroke:#000000;stroke-width:0.0037074;stroke-linecap:butt;stroke-linejoin:miter;stroke-opacity:1;stroke-miterlimit:4;stroke-dasharray:none" />
    </g>
    <g
       id="g3803"
       transform="matrix(0.91343852,0,0,1,-196.30614,2.590551e-6)"
       style="stroke-width:0.0037074;stroke-miterlimit:4;stroke-dasharray:none">
      <path
         style="fill:none;stroke:#000000;stroke-width:0.0037074;stroke-linecap:butt;stroke-linejoin:miter;stroke-opacity:1;stroke-miterlimit:4;stroke-dasharray:none"
         d="m 318.89764,238.11024 0,-56.69292 0,0"
         id="path3805"
         inkscape:connector-curvature="0"
         transform="translate(0,-567.64025)" />
      <path
         style="fill:none;stroke:#000000;stroke-width:0.0037074;stroke-linecap:butt;stroke-linejoin:miter;stroke-opacity:1;stroke-miterlimit:4;stroke-dasharray:none"
         d="m 318.89764,25.511811 0,56.692913"
         id="path3807"
         inkscape:connector-curvature="0"
         transform="translate(0,-567.64025)" />
      <path
         style="fill:none;stroke:#000000;stroke-width:0.0037074;stroke-linecap:butt;stroke-linejoin:miter;stroke-opacity:1;stroke-miterlimit:4;stroke-dasharray:none"
         d="m 318.89764,96.377953 0,70.866137"
         id="path3809"
         inkscape:connector-curvature="0"
         transform="translate(0,-567.64025)" />
      <path
         style="fill:none;stroke:#000000;stroke-width:0.0037074;stroke-linecap:butt;stroke-linejoin:miter;stroke-opacity:1;stroke-miterlimit:4;stroke-dasharray:none"
         d="m 333.07087,223.93701 0,-85.03937"
         id="path3811"
         inkscape:connector-curvature="0"
         transform="translate(0,-567.64025)" />
      <path
         style="fill:none;stroke:#000000;stroke-width:0.0037074;stroke-linecap:butt;stroke-linejoin:miter;stroke-opacity:1;stroke-miterlimit:4;stroke-dasharray:none"
         d="m 333.07087,124.72441 0,-85.039371"
         id="path3813"
         inkscape:connector-curvature="0"
         transform="translate(0,-567.64025)"
         sodipodi:nodetypes="cc" />
    </g>
    <g
       id="g3815"
       transform="matrix(0.91343852,0,0,1,-170.4134,-2.3700791e-6)"
       style="stroke-width:0.0037074;stroke-miterlimit:4;stroke-dasharray:none">
      <path
         style="fill:none;stroke:#000000;stroke-width:0.0037074;stroke-linecap:butt;stroke-linejoin:miter;stroke-opacity:1;stroke-miterlimit:4;stroke-dasharray:none"
         d="m 318.89764,238.11024 0,-56.69292 0,0"
         id="path3817"
         inkscape:connector-curvature="0"
         transform="translate(0,-567.64025)" />
      <path
         style="fill:none;stroke:#000000;stroke-width:0.0037074;stroke-linecap:butt;stroke-linejoin:miter;stroke-opacity:1;stroke-miterlimit:4;stroke-dasharray:none"
         d="m 318.89764,25.511811 0,56.692913"
         id="path3819"
         inkscape:connector-curvature="0"
         transform="translate(0,-567.64025)" />
      <path
         style="fill:none;stroke:#000000;stroke-width:0.0037074;stroke-linecap:butt;stroke-linejoin:miter;stroke-opacity:1;stroke-miterlimit:4;stroke-dasharray:none"
         d="m 318.89764,96.377953 0,70.866137"
         id="path3821"
         inkscape:connector-curvature="0"
         transform="translate(0,-567.64025)" />
      <path
         style="fill:none;stroke:#000000;stroke-width:0.0037074;stroke-linecap:butt;stroke-linejoin:miter;stroke-opacity:1;stroke-miterlimit:4;stroke-dasharray:none"
         d="m 333.07087,223.93701 0,-85.03937"
         id="path3823"
         inkscape:connector-curvature="0"
         transform="translate(0,-567.64025)" />
      <path
         style="fill:none;stroke:#000000;stroke-width:0.0037074;stroke-linecap:butt;stroke-linejoin:miter;stroke-opacity:1;stroke-miterlimit:4;stroke-dasharray:none"
         d="m 333.07087,124.72441 0,-85.039371"
         id="path3825"
         inkscape:connector-curvature="0"
         transform="translate(0,-567.64025)"
         sodipodi:nodetypes="cc" />
    </g>
    <g
       transform="matrix(0.91343852,0,0,1,-144.52066,-2.3700786e-6)"
       id="g3827"
       style="stroke-width:0.0037074;stroke-miterlimit:4;stroke-dasharray:none">
      <path
         transform="translate(0,-567.64025)"
         inkscape:connector-curvature="0"
         id="path3829"
         d="m 318.89764,238.11024 0,-56.69292 0,0"
         style="fill:none;stroke:#000000;stroke-width:0.0037074;stroke-linecap:butt;stroke-linejoin:miter;stroke-opacity:1;stroke-miterlimit:4;stroke-dasharray:none" />
      <path
         transform="translate(0,-567.64025)"
         inkscape:connector-curvature="0"
         id="path3831"
         d="m 318.89764,25.511811 0,56.692913"
         style="fill:none;stroke:#000000;stroke-width:0.0037074;stroke-linecap:butt;stroke-linejoin:miter;stroke-opacity:1;stroke-miterlimit:4;stroke-dasharray:none" />
      <path
         transform="translate(0,-567.64025)"
         inkscape:connector-curvature="0"
         id="path3833"
         d="m 318.89764,96.377953 0,70.866137"
         style="fill:none;stroke:#000000;stroke-width:0.0037074;stroke-linecap:butt;stroke-linejoin:miter;stroke-opacity:1;stroke-miterlimit:4;stroke-dasharray:none" />
      <path
         transform="translate(0,-567.64025)"
         inkscape:connector-curvature="0"
         id="path3835"
         d="m 333.07087,223.93701 0,-85.03937"
         style="fill:none;stroke:#000000;stroke-width:0.0037074;stroke-linecap:butt;stroke-linejoin:miter;stroke-opacity:1;stroke-miterlimit:4;stroke-dasharray:none" />
      <path
         sodipodi:nodetypes="cc"
         transform="translate(0,-567.64025)"
         inkscape:connector-curvature="0"
         id="path3837"
         d="m 333.07087,124.72441 0,-85.039371"
         style="fill:none;stroke:#000000;stroke-width:0.0037074;stroke-linecap:butt;stroke-linejoin:miter;stroke-opacity:1;stroke-miterlimit:4;stroke-dasharray:none" />
    </g>
    <g
       id="g3839"
       transform="matrix(0.91343852,0,0,1,-118.62791,4.7165349e-6)"
       style="stroke-width:0.0037074;stroke-miterlimit:4;stroke-dasharray:none">
      <path
         style="fill:none;stroke:#000000;stroke-width:0.0037074;stroke-linecap:butt;stroke-linejoin:miter;stroke-opacity:1;stroke-miterlimit:4;stroke-dasharray:none"
         d="m 318.89764,238.11024 0,-56.69292 0,0"
         id="path3841"
         inkscape:connector-curvature="0"
         transform="translate(0,-567.64025)" />
      <path
         style="fill:none;stroke:#000000;stroke-width:0.0037074;stroke-linecap:butt;stroke-linejoin:miter;stroke-opacity:1;stroke-miterlimit:4;stroke-dasharray:none"
         d="m 318.89764,25.511811 0,56.692913"
         id="path3843"
         inkscape:connector-curvature="0"
         transform="translate(0,-567.64025)" />
      <path
         style="fill:none;stroke:#000000;stroke-width:0.0037074;stroke-linecap:butt;stroke-linejoin:miter;stroke-opacity:1;stroke-miterlimit:4;stroke-dasharray:none"
         d="m 318.89764,96.377953 0,70.866137"
         id="path3845"
         inkscape:connector-curvature="0"
         transform="translate(0,-567.64025)" />
      <path
         style="fill:none;stroke:#000000;stroke-width:0.0037074;stroke-linecap:butt;stroke-linejoin:miter;stroke-opacity:1;stroke-miterlimit:4;stroke-dasharray:none"
         d="m 333.07087,223.93701 0,-85.03937"
         id="path3847"
         inkscape:connector-curvature="0"
         transform="translate(0,-567.64025)" />
      <path
         style="fill:none;stroke:#000000;stroke-width:0.0037074;stroke-linecap:butt;stroke-linejoin:miter;stroke-opacity:1;stroke-miterlimit:4;stroke-dasharray:none"
         d="m 333.07087,124.72441 0,-85.039371"
         id="path3849"
         inkscape:connector-curvature="0"
         transform="translate(0,-567.64025)"
         sodipodi:nodetypes="cc" />
    </g>
    <g
       transform="matrix(0.91343852,0,0,1,-92.735169,7.5511807e-6)"
       id="g3851"
       style="stroke-width:0.0037074;stroke-miterlimit:4;stroke-dasharray:none">
      <path
         transform="translate(0,-567.64025)"
         inkscape:connector-curvature="0"
         id="path3853"
         d="m 318.89764,238.11024 0,-56.69292 0,0"
         style="fill:none;stroke:#000000;stroke-width:0.0037074;stroke-linecap:butt;stroke-linejoin:miter;stroke-opacity:1;stroke-miterlimit:4;stroke-dasharray:none" />
      <path
         transform="translate(0,-567.64025)"
         inkscape:connector-curvature="0"
         id="path3855"
         d="m 318.89764,25.511811 0,56.692913"
         style="fill:none;stroke:#000000;stroke-width:0.0037074;stroke-linecap:butt;stroke-linejoin:miter;stroke-opacity:1;stroke-miterlimit:4;stroke-dasharray:none" />
      <path
         transform="translate(0,-567.64025)"
         inkscape:connector-curvature="0"
         id="path3857"
         d="m 318.89764,96.377953 0,70.866137"
         style="fill:none;stroke:#000000;stroke-width:0.0037074;stroke-linecap:butt;stroke-linejoin:miter;stroke-opacity:1;stroke-miterlimit:4;stroke-dasharray:none" />
      <path
         transform="translate(0,-567.64025)"
         inkscape:connector-curvature="0"
         id="path3859"
         d="m 333.07087,223.93701 0,-85.03937"
         style="fill:none;stroke:#000000;stroke-width:0.0037074;stroke-linecap:butt;stroke-linejoin:miter;stroke-opacity:1;stroke-miterlimit:4;stroke-dasharray:none" />
      <path
         sodipodi:nodetypes="cc"
         transform="translate(0,-567.64025)"
         inkscape:connector-curvature="0"
         id="path3861"
         d="m 333.07087,124.72441 0,-85.039371"
         style="fill:none;stroke:#000000;stroke-width:0.0037074;stroke-linecap:butt;stroke-linejoin:miter;stroke-opacity:1;stroke-miterlimit:4;stroke-dasharray:none" />
    </g>
    <path
       style="fill:none;stroke:#000000;stroke-width:0.00354331;stroke-linecap:butt;stroke-linejoin:miter;stroke-opacity:1;stroke-miterlimit:4;stroke-dasharray:none"
       d="m 224.45098,-329.53001 0,-56.69292 0,0"
       id="path3865"
       inkscape:connector-curvature="0" />
    <path
       style="fill:none;stroke:#000000;stroke-width:0.00354331;stroke-linecap:butt;stroke-linejoin:miter;stroke-opacity:1;stroke-miterlimit:4;stroke-dasharray:none"
       d="m 224.45098,-542.12844 0,56.69291"
       id="path3867"
       inkscape:connector-curvature="0" />
    <path
       style="fill:none;stroke:#000000;stroke-width:0.00354331;stroke-linecap:butt;stroke-linejoin:miter;stroke-opacity:1;stroke-miterlimit:4;stroke-dasharray:none"
       d="m 224.45098,-471.2623 0,70.86614"
       id="path3869"
       inkscape:connector-curvature="0" />
    <path
       sodipodi:nodetypes="cc"
       style="fill:none;stroke:#000000;stroke-width:0.00354331;stroke-linecap:butt;stroke-linejoin:miter;stroke-opacity:1;stroke-miterlimit:4;stroke-dasharray:none"
       d="m 237.39735,-357.87647 0,-70.86614"
       id="path3871"
       inkscape:connector-curvature="0" />
    <path
       style="fill:none;stroke:#000000;stroke-width:0.00354331;stroke-linecap:butt;stroke-linejoin:miter;stroke-opacity:1;stroke-miterlimit:4;stroke-dasharray:none"
       d="m 237.39735,-442.91584 0,-59.32237 m 0,-7.08661 0,-4.45669"
       id="path3873"
       inkscape:connector-curvature="0"
       sodipodi:nodetypes="cccc" />
    <g
       id="g3875"
       transform="matrix(0.91343852,0,0,1,-40.949669,2.590551e-6)"
       style="stroke-width:0.0037074;stroke-miterlimit:4;stroke-dasharray:none">
      <path
         style="fill:none;stroke:#000000;stroke-width:0.0037074;stroke-linecap:butt;stroke-linejoin:miter;stroke-opacity:1;stroke-miterlimit:4;stroke-dasharray:none"
         d="m 318.89764,238.11024 0,-56.69292 0,0"
         id="path3877"
         inkscape:connector-curvature="0"
         transform="translate(0,-567.64025)" />
      <path
         style="fill:none;stroke:#000000;stroke-width:0.0037074;stroke-linecap:butt;stroke-linejoin:miter;stroke-opacity:1;stroke-miterlimit:4;stroke-dasharray:none"
         d="m 318.89764,25.511811 0,56.692913"
         id="path3879"
         inkscape:connector-curvature="0"
         transform="translate(0,-567.64025)" />
      <path
         style="fill:none;stroke:#000000;stroke-width:0.0037074;stroke-linecap:butt;stroke-linejoin:miter;stroke-opacity:1;stroke-miterlimit:4;stroke-dasharray:none"
         d="m 318.89764,96.377953 0,70.866137"
         id="path3881"
         inkscape:connector-curvature="0"
         transform="translate(0,-567.64025)" />
      <path
         style="fill:none;stroke:#000000;stroke-width:0.0037074;stroke-linecap:butt;stroke-linejoin:miter;stroke-opacity:1;stroke-miterlimit:4;stroke-dasharray:none"
         d="m 333.07087,223.93701 0,-85.03937"
         id="path3883"
         inkscape:connector-curvature="0"
         transform="translate(0,-567.64025)" />
      <path
         style="fill:none;stroke:#000000;stroke-width:0.0037074;stroke-linecap:butt;stroke-linejoin:miter;stroke-opacity:1;stroke-miterlimit:4;stroke-dasharray:none"
         d="m 333.07087,124.72441 0,-85.039371"
         id="path3885"
         inkscape:connector-curvature="0"
         transform="translate(0,-567.64025)"
         sodipodi:nodetypes="cc" />
    </g>
    <g
       transform="matrix(0.91343852,0,0,1,-15.056929,6.3700782e-6)"
       id="g3887"
       style="stroke-width:0.0037074;stroke-miterlimit:4;stroke-dasharray:none">
      <path
         transform="translate(0,-567.64025)"
         inkscape:connector-curvature="0"
         id="path3889"
         d="m 318.89764,238.11024 0,-56.69292 0,0"
         style="fill:none;stroke:#000000;stroke-width:0.0037074;stroke-linecap:butt;stroke-linejoin:miter;stroke-opacity:1;stroke-miterlimit:4;stroke-dasharray:none" />
      <path
         transform="translate(0,-567.64025)"
         inkscape:connector-curvature="0"
         id="path3891"
         d="m 318.89764,25.511811 0,56.692913"
         style="fill:none;stroke:#000000;stroke-width:0.0037074;stroke-linecap:butt;stroke-linejoin:miter;stroke-opacity:1;stroke-miterlimit:4;stroke-dasharray:none" />
      <path
         transform="translate(0,-567.64025)"
         inkscape:connector-curvature="0"
         id="path3893"
         d="m 318.89764,96.377953 0,70.866137"
         style="fill:none;stroke:#000000;stroke-width:0.0037074;stroke-linecap:butt;stroke-linejoin:miter;stroke-opacity:1;stroke-miterlimit:4;stroke-dasharray:none" />
      <path
         transform="translate(0,-567.64025)"
         inkscape:connector-curvature="0"
         id="path3895"
         d="m 333.07087,223.93701 0,-85.03937"
         style="fill:none;stroke:#000000;stroke-width:0.0037074;stroke-linecap:butt;stroke-linejoin:miter;stroke-opacity:1;stroke-miterlimit:4;stroke-dasharray:none" />
      <path
         sodipodi:nodetypes="cc"
         transform="translate(0,-567.64025)"
         inkscape:connector-curvature="0"
         id="path3897"
         d="m 333.07087,124.72441 0,-85.039371"
         style="fill:none;stroke:#000000;stroke-width:0.0037074;stroke-linecap:butt;stroke-linejoin:miter;stroke-opacity:1;stroke-miterlimit:4;stroke-dasharray:none" />
    </g>
    <g
       id="g3899"
       transform="matrix(0.91343852,0,0,1,10.835801,9.2047239e-6)"
       style="stroke-width:0.0037074;stroke-miterlimit:4;stroke-dasharray:none">
      <path
         style="fill:none;stroke:#000000;stroke-width:0.0037074;stroke-linecap:butt;stroke-linejoin:miter;stroke-opacity:1;stroke-miterlimit:4;stroke-dasharray:none"
         d="m 318.89764,238.11024 0,-56.69292 0,0"
         id="path3901"
         inkscape:connector-curvature="0"
         transform="translate(0,-567.64025)" />
      <path
         style="fill:none;stroke:#000000;stroke-width:0.0037074;stroke-linecap:butt;stroke-linejoin:miter;stroke-opacity:1;stroke-miterlimit:4;stroke-dasharray:none"
         d="m 318.89764,25.511811 0,56.692913"
         id="path3903"
         inkscape:connector-curvature="0"
         transform="translate(0,-567.64025)" />
      <path
         style="fill:none;stroke:#000000;stroke-width:0.0037074;stroke-linecap:butt;stroke-linejoin:miter;stroke-opacity:1;stroke-miterlimit:4;stroke-dasharray:none"
         d="m 318.89764,96.377953 0,70.866137"
         id="path3905"
         inkscape:connector-curvature="0"
         transform="translate(0,-567.64025)" />
      <path
         style="fill:none;stroke:#000000;stroke-width:0.0037074;stroke-linecap:butt;stroke-linejoin:miter;stroke-opacity:1;stroke-miterlimit:4;stroke-dasharray:none"
         d="m 333.07087,223.93701 0,-85.03937"
         id="path3907"
         inkscape:connector-curvature="0"
         transform="translate(0,-567.64025)" />
      <path
         style="fill:none;stroke:#000000;stroke-width:0.0037074;stroke-linecap:butt;stroke-linejoin:miter;stroke-opacity:1;stroke-miterlimit:4;stroke-dasharray:none"
         d="m 333.07087,124.72441 0,-85.039371"
         id="path3909"
         inkscape:connector-curvature="0"
         transform="translate(0,-567.64025)"
         sodipodi:nodetypes="cc" />
    </g>
    <g
       id="g3911"
       transform="matrix(0.91343852,0,0,1,36.728571,4.2440938e-6)"
       style="stroke-width:0.0037074;stroke-miterlimit:4;stroke-dasharray:none">
      <path
         style="fill:none;stroke:#000000;stroke-width:0.0037074;stroke-linecap:butt;stroke-linejoin:miter;stroke-opacity:1;stroke-miterlimit:4;stroke-dasharray:none"
         d="m 318.89764,238.11024 0,-56.69292 0,0"
         id="path3913"
         inkscape:connector-curvature="0"
         transform="translate(0,-567.64025)" />
      <path
         style="fill:none;stroke:#000000;stroke-width:0.0037074;stroke-linecap:butt;stroke-linejoin:miter;stroke-opacity:1;stroke-miterlimit:4;stroke-dasharray:none"
         d="m 318.89764,25.511811 0,56.692913"
         id="path3915"
         inkscape:connector-curvature="0"
         transform="translate(0,-567.64025)" />
      <path
         style="fill:none;stroke:#000000;stroke-width:0.0037074;stroke-linecap:butt;stroke-linejoin:miter;stroke-opacity:1;stroke-miterlimit:4;stroke-dasharray:none"
         d="m 318.89764,96.377953 0,70.866137"
         id="path3917"
         inkscape:connector-curvature="0"
         transform="translate(0,-567.64025)" />
      <path
         style="fill:none;stroke:#000000;stroke-width:0.0037074;stroke-linecap:butt;stroke-linejoin:miter;stroke-opacity:1;stroke-miterlimit:4;stroke-dasharray:none"
         d="m 333.07087,223.93701 0,-85.03937"
         id="path3919"
         inkscape:connector-curvature="0"
         transform="translate(0,-567.64025)" />
      <path
         style="fill:none;stroke:#000000;stroke-width:0.0037074;stroke-linecap:butt;stroke-linejoin:miter;stroke-opacity:1;stroke-miterlimit:4;stroke-dasharray:none"
         d="m 333.07087,124.72441 0,-85.039371"
         id="path3921"
         inkscape:connector-curvature="0"
         transform="translate(0,-567.64025)"
         sodipodi:nodetypes="cc" />
    </g>
    <g
       transform="matrix(0.91343852,0,0,1,62.621311,4.2440943e-6)"
       id="g3923"
       style="stroke-width:0.0037074;stroke-miterlimit:4;stroke-dasharray:none">
      <path
         transform="translate(0,-567.64025)"
         inkscape:connector-curvature="0"
         id="path3925"
         d="m 318.89764,238.11024 0,-56.69292 0,0"
         style="fill:none;stroke:#000000;stroke-width:0.0037074;stroke-linecap:butt;stroke-linejoin:miter;stroke-opacity:1;stroke-miterlimit:4;stroke-dasharray:none" />
      <path
         transform="translate(0,-567.64025)"
         inkscape:connector-curvature="0"
         id="path3927"
         d="m 318.89764,25.511811 0,56.692913"
         style="fill:none;stroke:#000000;stroke-width:0.0037074;stroke-linecap:butt;stroke-linejoin:miter;stroke-opacity:1;stroke-miterlimit:4;stroke-dasharray:none" />
      <path
         transform="translate(0,-567.64025)"
         inkscape:connector-curvature="0"
         id="path3929"
         d="m 318.89764,96.377953 0,70.866137"
         style="fill:none;stroke:#000000;stroke-width:0.0037074;stroke-linecap:butt;stroke-linejoin:miter;stroke-opacity:1;stroke-miterlimit:4;stroke-dasharray:none" />
      <path
         transform="translate(0,-567.64025)"
         inkscape:connector-curvature="0"
         id="path3931"
         d="m 333.07087,223.93701 0,-85.03937"
         style="fill:none;stroke:#000000;stroke-width:0.0037074;stroke-linecap:butt;stroke-linejoin:miter;stroke-opacity:1;stroke-miterlimit:4;stroke-dasharray:none" />
      <path
         sodipodi:nodetypes="cc"
         transform="translate(0,-567.64025)"
         inkscape:connector-curvature="0"
         id="path3933"
         d="m 333.07087,124.72441 0,-85.039371"
         style="fill:none;stroke:#000000;stroke-width:0.0037074;stroke-linecap:butt;stroke-linejoin:miter;stroke-opacity:1;stroke-miterlimit:4;stroke-dasharray:none" />
    </g>
    <g
       id="g3935"
       transform="matrix(0.91343852,0,0,1,88.514051,-2.3700791e-6)"
       style="stroke-width:0.0037074;stroke-miterlimit:4;stroke-dasharray:none">
      <path
         style="fill:none;stroke:#000000;stroke-width:0.0037074;stroke-linecap:butt;stroke-linejoin:miter;stroke-opacity:1;stroke-miterlimit:4;stroke-dasharray:none"
         d="m 318.89764,238.11024 0,-56.69292 0,0"
         id="path3937"
         inkscape:connector-curvature="0"
         transform="translate(0,-567.64025)" />
      <path
         style="fill:none;stroke:#000000;stroke-width:0.0037074;stroke-linecap:butt;stroke-linejoin:miter;stroke-opacity:1;stroke-miterlimit:4;stroke-dasharray:none"
         d="m 318.89764,25.511811 0,56.692913"
         id="path3939"
         inkscape:connector-curvature="0"
         transform="translate(0,-567.64025)" />
      <path
         style="fill:none;stroke:#000000;stroke-width:0.0037074;stroke-linecap:butt;stroke-linejoin:miter;stroke-opacity:1;stroke-miterlimit:4;stroke-dasharray:none"
         d="m 318.89764,96.377953 0,70.866137"
         id="path3941"
         inkscape:connector-curvature="0"
         transform="translate(0,-567.64025)" />
      <path
         style="fill:none;stroke:#000000;stroke-width:0.0037074;stroke-linecap:butt;stroke-linejoin:miter;stroke-opacity:1;stroke-miterlimit:4;stroke-dasharray:none"
         d="m 333.07087,223.93701 0,-85.03937"
         id="path3943"
         inkscape:connector-curvature="0"
         transform="translate(0,-567.64025)" />
      <path
         style="fill:none;stroke:#000000;stroke-width:0.0037074;stroke-linecap:butt;stroke-linejoin:miter;stroke-opacity:1;stroke-miterlimit:4;stroke-dasharray:none"
         d="m 333.07087,124.72441 0,-85.039371"
         id="path3945"
         inkscape:connector-curvature="0"
         transform="translate(0,-567.64025)"
         sodipodi:nodetypes="cc" />
    </g>
    <path
       sodipodi:type="arc"
       style="fill:none;stroke:#0000ff;stroke-width:0.00354331;stroke-miterlimit:4;stroke-opacity:1;stroke-dasharray:none"
       id="path4045"
       sodipodi:cx="492.51968"
       sodipodi:cy="39.68504"
       sodipodi:rx="3.5433071"
       sodipodi:ry="3.5433071"
       d="m 496.06299,39.68504 c 0,1.956914 -1.58639,3.543307 -3.54331,3.543307 -1.95691,0 -3.5433,-1.586393 -3.5433,-3.543307 0,-1.956915 1.58639,-3.543308 3.5433,-3.543308 1.95692,0 3.54331,1.586393 3.54331,3.543308 z"
       transform="translate(-255.12233,-545.46655)" />
    <g
       id="g4272"
       style="stroke-width:0.00354331;stroke-miterlimit:4;stroke-dasharray:none">
      <path
         sodipodi:nodetypes="czcccccccczccscczccsc"
         inkscape:connector-curvature="0"
         d="m 248.0315,-166.53789 c 0,0 -11.69408,3.54331 -17.71654,3.54331 -6.02246,0 -17.71653,-3.54331 -17.71653,-3.54331 l 0,-17.71653 -35.43308,0 0,14.17322 -70.86614,0 0,-14.17322 -35.433068,0 0,17.71653 c 0,0 -11.694072,3.54331 -17.716536,3.54331 -6.022464,0 -17.716535,-3.54331 -17.716535,-3.54331 m 0,-1e-5 0,-35.43307 c 0,-57.7061 45.161917,-104.44591 102.401579,-106.2992 l 0,-14.17323 c 0,0 0.35432,-3.54331 3.89763,-3.54331 3.54331,0 3.89764,3.54331 3.89764,3.54331 l 0,14.17323 c 57.22902,1.86487 102.40157,48.60071 102.40157,106.2992 l 0,35.43307"
         style="fill:none;stroke:#000000;stroke-width:0.00354331;stroke-linecap:butt;stroke-linejoin:miter;stroke-opacity:1;stroke-miterlimit:4;stroke-dasharray:none"
         id="path4066" />
      <rect
         ry="1.7716535"
         y="-272.8371"
         x="92.125984"
         height="3.5433071"
         width="99.212608"
         id="rect4083"
         style="fill:none;stroke:#0000ff;stroke-width:0.00354331;stroke-miterlimit:4;stroke-opacity:1;stroke-dasharray:none" />
      <rect
         style="fill:none;stroke:#0000ff;stroke-width:0.00354331;stroke-miterlimit:4;stroke-opacity:1;stroke-dasharray:none"
         id="rect4103"
         width="92.125984"
         height="3.5433071"
         x="95.669289"
         y="-262.20718"
         ry="1.7716535" />
      <rect
         ry="1.56914"
         y="-251.57727"
         x="74.409447"
         height="3.5432997"
         width="134.64568"
         id="rect4105"
         style="fill:none;stroke:#0000ff;stroke-width:0.00354331;stroke-miterlimit:4;stroke-opacity:1;stroke-dasharray:none" />
      <rect
         style="fill:none;stroke:#0000ff;stroke-width:0.00354331;stroke-miterlimit:4;stroke-opacity:1;stroke-dasharray:none"
         id="rect4107"
         width="113.38583"
         height="3.5433078"
         x="85.039368"
         y="-240.94736"
         ry="1.6704092" />
      <rect
         ry="1.7716535"
         y="-230.31743"
         x="70.866142"
         height="3.5433071"
         width="141.7323"
         id="rect4109"
         style="fill:none;stroke:#0000ff;stroke-width:0.00354331;stroke-miterlimit:4;stroke-opacity:1;stroke-dasharray:none" />
      <rect
         style="fill:none;stroke:#0000ff;stroke-width:0.00354331;stroke-miterlimit:4;stroke-opacity:1;stroke-dasharray:none"
         id="rect4111"
         width="113.38582"
         height="3.5432937"
         x="85.039368"
         y="-219.68752"
         ry="1.5691675" />
      <rect
         ry="1.7716535"
         y="-209.05759"
         x="70.866142"
         height="3.5433071"
         width="141.7323"
         id="rect4113"
         style="fill:none;stroke:#0000ff;stroke-width:0.00354331;stroke-miterlimit:4;stroke-opacity:1;stroke-dasharray:none" />
      <path
         transform="translate(-2.6385829e-7,-581.81348)"
         d="m 233.85826,404.64566 c 0,1.95691 -1.58639,3.54331 -3.5433,3.54331 -1.95692,0 -3.54331,-1.5864 -3.54331,-3.54331 0,-1.95691 1.58639,-3.54331 3.54331,-3.54331 1.95691,0 3.5433,1.5864 3.5433,3.54331 z"
         sodipodi:ry="3.5433071"
         sodipodi:rx="3.5433071"
         sodipodi:cy="404.64566"
         sodipodi:cx="230.31496"
         id="path4115"
         style="fill:none;stroke:#0000ff;stroke-width:0.00354331;stroke-miterlimit:4;stroke-opacity:1;stroke-dasharray:none"
         sodipodi:type="arc" />
      <path
         transform="translate(-2.6385829e-7,-581.81348)"
         d="m 56.692912,404.64566 c 0,1.95691 -1.586393,3.54331 -3.543307,3.54331 -1.956915,0 -3.543307,-1.5864 -3.543307,-3.54331 0,-1.95691 1.586392,-3.54331 3.543307,-3.54331 1.956914,0 3.543307,1.5864 3.543307,3.54331 z"
         sodipodi:ry="3.5433071"
         sodipodi:rx="3.5433071"
         sodipodi:cy="404.64566"
         sodipodi:cx="53.149605"
         id="path4117"
         style="fill:none;stroke:#0000ff;stroke-width:0.00354331;stroke-miterlimit:4;stroke-opacity:1;stroke-dasharray:none"
         sodipodi:type="arc" />
    </g>
    <path
       id="path4197-4"
       style="fill:none;stroke:#000000;stroke-width:0.00354331;stroke-linecap:butt;stroke-linejoin:miter;stroke-opacity:1;stroke-miterlimit:4;stroke-dasharray:none"
       d="m 35.433071,-60.238682 10.62992,0 0,-4.3937 7.08662,0 0,4.3937 7.086609,0 0,7.08661 -7.086609,0 0,4.3937 -7.08662,0 0,-4.3937 -10.62992,0 m 212.598429,-7.08661 -10.62992,0 0,-4.3937 -7.08662,0 0,4.3937 -7.08661,0 0,7.08661 7.08661,0 0,4.3937 7.08662,0 0,-4.3937 10.62992,0 m -21.25984,-95.669278 0,10.62992 -4.3937,0 0,7.08662 4.3937,0 -1e-5,7.08661 7.08662,0 0,-7.08661 4.3937,0 0,-7.08662 -4.3937,0 0,-10.62992 m -7.08661,184.251958 0,-10.62992 -4.3937,0 0,-7.08662 4.3937,0 -1e-5,-7.08661 7.08662,0 0,7.08661 4.3937,0 0,7.08662 -4.3937,0 0,10.62992 M 49.606299,-148.82135 l 0,10.62992 -4.393701,0 0,7.08662 4.393701,0 0,7.08661 7.086614,0 0,-7.08661 4.393701,0 0,-7.08662 -4.393701,0 0,-10.62992 m 0,184.251958 13.818898,0 0,14.17323 c 0,0 12.048405,3.5433 18.070865,3.5433 6.02246,0 18.070864,-3.5433 18.070864,-3.5433 l 0,-17.71654 70.15748,0 0,17.71654 c 0,0 12.16536,3.5433 18.07087,3.5433 5.90551,0 18.07087,-3.5433 18.07087,-3.5433 l 0,-14.17323 13.81889,0 m 7.08662,0 14.17323,0 m -198.425201,0 0,-10.62992 -4.393701,0 0,-7.08662 4.393701,0 0,-7.08661 7.086614,0 0,7.08661 4.393701,0 0,7.08662 -4.393701,0 0,10.62992 m -21.259842,0 14.173228,0 m -14.173228,0 0,-88.58268 m 0,-7.08661 0,-88.582668 14.173228,0 m 7.086614,0 13.818898,0 0,-14.17323 c 0,0 12.048405,-3.54331 18.070865,-3.54331 6.02246,0 18.070864,3.54331 18.070864,3.54331 l 0,17.71654 70.15748,0 0,-17.71654 c 0,0 12.0484,-3.54331 18.07087,-3.54331 6.02247,0 18.07087,3.54331 18.07087,3.54331 l 0,14.17323 13.81889,0 m 7.08662,0 14.17323,0 0,88.582668 m 0,7.08661 0,88.58268"
       inkscape:connector-curvature="0" />
    <path
       sodipodi:type="arc"
       style="fill:none;stroke:#0000ff;stroke-width:0.00354331;stroke-miterlimit:4;stroke-opacity:1;stroke-dasharray:none"
       id="path4217"
       sodipodi:cx="294.09448"
       sodipodi:cy="131.81102"
       sodipodi:rx="3.5433071"
       sodipodi:ry="3.5433071"
       d="m 297.63779,131.81102 c 0,1.95691 -1.58639,3.54331 -3.54331,3.54331 -1.95691,0 -3.5433,-1.5864 -3.5433,-3.54331 0,-1.95691 1.58639,-3.54331 3.5433,-3.54331 1.95692,0 3.54331,1.5864 3.54331,3.54331 z"
       transform="translate(-248.74015,-567.64025)" />
    <path
       sodipodi:type="arc"
       style="fill:none;stroke:#0000ff;stroke-width:0.00354331;stroke-miterlimit:4;stroke-opacity:1;stroke-dasharray:none"
       id="path4219"
       sodipodi:cx="683.85828"
       sodipodi:cy="131.81102"
       sodipodi:rx="3.5433071"
       sodipodi:ry="3.5433071"
       d="m 687.40158,131.81102 c 0,1.95691 -1.58639,3.54331 -3.5433,3.54331 -1.95692,0 -3.54331,-1.5864 -3.54331,-3.54331 0,-1.95691 1.58639,-3.54331 3.54331,-3.54331 1.95691,0 3.5433,1.5864 3.5433,3.54331 z"
       transform="translate(-254.40946,-567.64025)" />
    <path
       inkscape:connector-curvature="0"
       id="path3937-4"
       d="m 405.70017,-329.53001 0,-56.69292 0,0"
       style="fill:none;stroke:#000000;stroke-width:0.00354331;stroke-linecap:butt;stroke-linejoin:miter;stroke-opacity:1;stroke-miterlimit:4;stroke-dasharray:none" />
    <path
       inkscape:connector-curvature="0"
       id="path3939-3"
       d="m 405.70017,-542.12844 0,56.69291"
       style="fill:none;stroke:#000000;stroke-width:0.00354331;stroke-linecap:butt;stroke-linejoin:miter;stroke-opacity:1;stroke-miterlimit:4;stroke-dasharray:none" />
    <path
       inkscape:connector-curvature="0"
       id="path3941-1"
       d="m 405.70017,-471.2623 0,70.86614"
       style="fill:none;stroke:#000000;stroke-width:0.00354331;stroke-linecap:butt;stroke-linejoin:miter;stroke-opacity:1;stroke-miterlimit:4;stroke-dasharray:none" />
    <use
       x="0"
       y="0"
       xlink:href="#g4272"
       id="use4284"
       transform="translate(216.14173,2.2047245e-6)"
       width="2160"
       height="1620"
       style="stroke-width:0.00354331;stroke-miterlimit:4;stroke-dasharray:none" />
  </g>
</svg>
